<?xml version="1.0" standalone="no"?>
<!DOCTYPE svg PUBLIC "-//W3C//DTD SVG 20010904//EN"
 "http://www.w3.org/TR/2001/REC-SVG-20010904/DTD/svg10.dtd">
<svg version="1.0" xmlns="http://www.w3.org/2000/svg"
 width="260.000000pt" height="260.000000pt" viewBox="0 0 260.000000 260.000000"
 preserveAspectRatio="xMidYMid meet">
<metadata>
Created by potrace 1.11, written by Peter Selinger 2001-2013
</metadata>
<g transform="translate(0.000000,260.000000) scale(0.100000,-0.100000)"
fill="#000000" stroke="none">
<path d="M304 2235 c-3 -7 -4 -255 -2 -551 l4 -539 27 -90 c98 -333 349 -580
680 -668 80 -22 96 -22 722 -22 l640 0 -3 30 c-8 71 -79 147 -150 161 l-32 7
-1 401 c0 220 -2 415 -5 431 -39 286 -162 503 -378 664 -107 81 -247 144 -382
172 -86 18 -1114 21 -1120 4z m498 -233 c235 -80 405 -258 478 -499 12 -40 34
-90 50 -111 29 -41 91 -77 148 -87 l32 -5 0 55 c0 195 -107 440 -262 600 -43
44 -78 81 -78 83 0 8 178 -2 229 -13 298 -63 533 -315 577 -620 7 -50 13 -796
6 -826 -3 -13 -19 -15 -102 -13 -124 4 -200 23 -320 81 -81 39 -107 59 -185
137 -100 100 -145 175 -190 311 -14 44 -35 93 -46 110 -29 42 -85 80 -137 93
-53 13 -57 6 -49 -81 6 -61 8 -72 22 -132 38 -164 137 -337 264 -460 28 -27
51 -53 51 -56 0 -10 -146 -1 -205 12 -268 61 -486 272 -556 539 -21 81 -22
105 -23 504 l-2 419 106 -6 c80 -4 126 -13 192 -35z"/>
</g>
</svg>
